<svg width="186" height="186" viewBox="0 0 186 186" fill="none" xmlns="http://www.w3.org/2000/svg">
<path fill-rule="evenodd" clip-rule="evenodd" d="M185.608 101.608C185.347 104.454 184.957 107.264 184.445 110.031L75.9706 1.55639C78.7369 1.04454 81.5466 0.655018 84.3937 0.393666L185.608 101.608ZM66.3032 3.88897C69.0776 3.05913 71.9067 2.35527 74.784 1.78399L184.217 111.217C183.646 114.094 182.942 116.923 182.111 119.697L66.3032 3.88897ZM175.317 136.317C174.223 138.391 173.053 140.419 171.811 142.397L43.6025 14.1883C45.5801 12.9461 47.608 11.7762 49.6824 10.6824L175.317 136.317ZM37.662 18.2478C39.3128 17.0237 41.0056 15.8528 42.738 14.738L171.261 143.261C170.146 144.993 168.976 146.686 167.752 148.337L37.662 18.2478ZM185.114 80.1136C185.588 83.5372 185.877 87.0208 185.968 90.554L95.4454 0.031178C98.9771 0.121937 102.46 0.409901 105.885 0.884511L185.114 80.1136ZM92.347 0.00230834C92.9008 -0.00159791 93.4536 -0.000682381 94.0051 0.00511596L185.995 91.9946C185.996 92.1121 185.997 92.2295 185.998 92.347C186.017 95.0265 185.922 97.6804 185.718 100.304L85.6974 0.283192C87.8932 0.112538 90.1106 0.0179944 92.347 0.00230834ZM181.78 120.78C181.031 123.176 180.188 125.531 179.254 127.84L58.16 6.74578C60.4686 5.81249 62.8234 4.96917 65.2202 4.22014L181.78 120.78ZM50.6128 10.1986C52.7477 9.10357 54.9307 8.08861 57.1578 7.15776L178.842 128.842C177.911 131.068 176.896 133.251 175.801 135.386L50.6128 10.1986ZM173.64 46.6395C176.779 52.0887 179.382 57.887 181.377 63.9629L122.037 4.62267C128.112 6.61773 133.911 9.2221 139.364 12.3639L173.64 46.6395ZM107.544 1.12981C111.788 1.79638 115.937 2.75023 119.971 3.97094L182.028 66.0284C183.248 70.0607 184.202 74.2094 184.868 78.4541L107.544 1.12981ZM25.4706 29.0564C27.1869 27.2443 28.9754 25.5011 30.8316 23.8316L162.168 155.168C160.499 157.024 158.756 158.813 156.944 160.53L25.4706 29.0564ZM36.8539 18.8539C35.0428 20.2275 33.2836 21.6659 31.5799 23.1657L162.834 154.42C164.334 152.716 165.772 150.957 167.145 149.145L36.8539 18.8539ZM142.96 14.5459C154.406 21.8497 164.151 31.5911 171.458 43.044L142.96 14.5459ZM0 93C0 93.2175 0.000793457 93.4352 0.00231934 93.6531C0.0247803 96.8542 0.20874 100.017 0.546387 103.132L82.8696 185.455C86.1974 185.816 89.5775 186.001 93.0001 186L0 93ZM81.2679 185.268C77.689 184.817 74.173 184.163 70.7318 183.318L2.68384 115.27C1.83868 111.83 1.18469 108.314 0.734009 104.734L81.2679 185.268ZM53.7496 177.335C58.5667 179.581 63.6072 181.426 68.8282 182.828L3.17303 117.173C4.57446 122.395 6.41876 127.434 8.6629 132.249L53.7496 177.335ZM50.9954 175.995L10.0023 135.002C18.9517 152.653 33.3622 167.053 50.9954 175.995ZM0.0101929 91.596L94.4037 185.989C97.4478 185.944 100.456 185.753 103.422 185.422L0.576782 82.5768C0.245911 85.5437 0.0548706 88.5524 0.0101929 91.596ZM0.726562 81.3124L104.686 185.272C107.455 184.925 110.185 184.456 112.872 183.872L2.12738 73.1274C1.54236 75.8145 1.07361 78.5447 0.726562 81.3124ZM20.3497 34.9355C21.7663 33.1651 23.2464 31.4477 24.7864 29.7864L156.214 161.214C154.553 162.754 152.836 164.234 151.065 165.651L20.3497 34.9355ZM19.7249 35.7249L150.276 166.276C148.476 167.685 146.622 169.029 144.719 170.305L15.696 41.2818C16.9717 39.3787 18.3158 37.5253 19.7249 35.7249ZM15.1324 42.1324L143.868 170.868C141.924 172.142 139.928 173.344 137.886 174.471L11.5294 48.1152C12.657 46.0729 13.8593 44.0774 15.1324 42.1324ZM11.0307 49.0307L136.97 174.97C135.092 175.98 133.175 176.927 131.222 177.808L8.19257 54.7784C9.07404 52.8258 10.021 50.9089 11.0307 49.0307ZM7.75745 55.7574L130.243 178.243C127.991 179.229 125.691 180.127 123.349 180.935L5.0647 62.6505C5.87274 60.3093 6.77173 58.0101 7.75745 55.7574ZM4.70715 63.7071L122.293 181.293C119.591 182.189 116.833 182.964 114.027 183.612L2.3866 71.9724C3.03516 69.1669 3.81085 66.4097 4.70715 63.7071Z" fill="url(#paint0_linear_20_73)" fill-opacity="0.4"/>
<defs>
<linearGradient id="paint0_linear_20_73" x1="38.7337" y1="22.6498" x2="148.938" y2="165.82" gradientUnits="userSpaceOnUse">
<stop stop-color="#A81817"/>
<stop offset="0.46875" stop-color="#344D2F"/>
<stop offset="1" stop-color="#93AF42"/>
</linearGradient>
</defs>
</svg>
